<svg width="355" height="283" viewBox="0 0 355 283" fill="none" xmlns="http://www.w3.org/2000/svg">
<path d="M253.967 14.3529C276.667 29.3696 280.894 59.7885 295.56 82.7296C311.412 107.523 336.391 126.098 343.646 154.624C352.411 189.093 365.55 233.974 340.416 259.117C314.139 285.404 268.361 262.233 231.493 266.816C205.621 270.032 181.905 287.304 156.379 281.993C130.871 276.685 115.693 251.919 93.5857 238.12C63.6213 219.416 16.7398 219.313 3.47949 186.552C-9.36171 154.826 16.1822 119.936 33.8997 90.6581C49.2346 65.317 72.5711 47.224 97.4783 31.218C120.637 16.3358 145.343 4.40754 172.705 1.45869C200.536 -1.54079 230.613 -1.09582 253.967 14.3529Z" fill="#CDEF84" fill-opacity="0.3"/>
</svg>
