<svg width="24" height="25" viewBox="0 0 24 25" fill="none" xmlns="http://www.w3.org/2000/svg">
<path d="M16.3399 2.49902C19.7299 2.49902 21.9999 4.87902 21.9999 8.41902V16.59C21.9999 20.12 19.7299 22.499 16.3399 22.499H7.66988C4.27988 22.499 1.99988 20.12 1.99988 16.59V8.41902C1.99988 4.87902 4.27988 2.49902 7.66988 2.49902H16.3399ZM11.9899 10.98C11.5099 10.98 11.1199 11.379 11.1199 11.86V16.28C11.1199 16.76 11.5099 17.15 11.9899 17.15C12.4799 17.15 12.8699 16.76 12.8699 16.28V11.86C12.8699 11.379 12.4799 10.98 11.9899 10.98ZM12.0099 7.81002C11.5199 7.81002 11.1299 8.20002 11.1299 8.69002C11.1299 9.16902 11.5199 9.56002 11.9899 9.56002C12.4899 9.56002 12.8799 9.16902 12.8799 8.69002C12.8799 8.20002 12.4899 7.81002 12.0099 7.81002Z" fill="white"/>
</svg>
