<svg width="19" height="19" viewBox="0 0 19 19" fill="none" xmlns="http://www.w3.org/2000/svg">
<path fill-rule="evenodd" clip-rule="evenodd" d="M13.6173 0C16.8368 0 19 2.2591 19 5.6202V13.3798C19 16.7409 16.8368 19 13.6154 19H5.3808C2.1622 19 0 16.7409 0 13.3798V5.6202C0 2.2591 2.1622 0 5.3808 0H13.6173ZM13.6173 1.425H5.3808C2.97825 1.425 1.425 3.07135 1.425 5.6202V13.3798C1.425 15.9286 2.97825 17.575 5.3808 17.575H13.6154C16.0208 17.575 17.575 15.9286 17.575 13.3798V5.6202C17.575 3.07135 16.0208 1.425 13.6173 1.425ZM9.4943 8.7875C9.8876 8.7875 10.2068 9.1067 10.2068 9.5V13.3C10.2068 13.6933 9.8876 14.0125 9.4943 14.0125C9.101 14.0125 8.7818 13.6933 8.7818 13.3V9.5C8.7818 9.1067 9.101 8.7875 9.4943 8.7875ZM9.49895 4.94389C10.0243 4.94389 10.449 5.36855 10.449 5.8939C10.449 6.41925 10.0243 6.84389 9.49895 6.84389C8.9736 6.84389 8.5442 6.41925 8.5442 5.8939C8.5442 5.36855 8.96506 4.94389 9.48946 4.94389H9.49895Z" fill="#ffffff"/>
</svg>
